<?xml version="1.0" standalone="no"?>
<!DOCTYPE svg PUBLIC "-//W3C//DTD SVG 1.1//EN" "http://www.w3.org/Graphics/SVG/1.1/DTD/svg11.dtd">
<svg xmlns="http://www.w3.org/2000/svg" id="Layer_1" data-name="Layer 1" version="1.1" viewBox="0 0 102.4 105.1" width="102.4000015258789" height="105.0999984741211">
  <defs>
    <style>
      .cls-1 {
        fill: #5eb3e4;
      }

      .cls-1, .cls-2, .cls-3 {
        stroke-width: 0px;
      }

      .cls-2 {
        fill: #004175;
      }

      .cls-4 {
        isolation: isolate;
      }

      .cls-3 {
        fill: #fff;
      }
    </style>
  </defs>
  <polygon class="cls-1" points="50.8 6 57.7 13.3 66.8 8.9 70.8 18.1 80.9 17 81.6 27 91.3 29.5 88.5 39.1 96.9 44.8 90.9 52.9 96.9 61 88.5 66.6 91.3 76.3 81.6 78.7 80.9 88.8 70.8 87.7 66.8 96.9 57.7 92.5 50.8 99.8 43.8 92.5 34.7 96.9 30.7 87.7 20.6 88.8 20 78.7 10.2 76.3 13 66.6 4.6 61 10.6 52.9 4.6 44.8 13 39.1 10.2 29.5 20 27 20.6 17 30.7 18.1 34.7 8.9 43.8 13.3 50.8 6"/>
  <g class="cls-4">
    <g class="cls-4">
      <path class="cls-3" d="M26.7,46.3v-15.4h10.1v2.9h-6.3v3.3h4.7v2.9h-4.7v6.4h-3.8Z"/>
      <path class="cls-3" d="M43.1,40.3v6h-3.8v-15.4h6.1c1.8,0,3.2.5,4.2,1.4,1,.9,1.5,2,1.5,3.3s-.3,1.8-.8,2.6c-.5.9-1.4,1.5-2.7,1.8l3.8,6.3h-4.4l-3.5-6h-.4ZM43.1,33.7v3.7h2.3c.6,0,1-.2,1.4-.5.3-.3.5-.8.5-1.3s-.2-1-.5-1.4c-.3-.4-.8-.5-1.3-.5h-2.3Z"/>
      <path class="cls-3" d="M63.4,30.8v2.9h-5.6v3.3h4.9v2.9h-4.9v3.6h5.6v2.9h-9.4v-15.5h9.4Z"/>
      <path class="cls-3" d="M76,30.8v2.9h-5.6v3.3h4.9v2.9h-4.9v3.6h5.6v2.9h-9.4v-15.5h9.4Z"/>
    </g>
  </g>
  <g class="cls-4">
    <g class="cls-4">
      <path class="cls-2" d="M29.8,52.2v9.3h-1.6v-4h-2.3v4h-1.6v-9.3h1.6v3.9h2.3v-3.9h1.6Z"/>
      <path class="cls-2" d="M35.4,59.6h-2.3l-.4,2h-1.8l2.2-9.3h2.3l2.2,9.3h-1.8l-.4-2ZM35.1,58.1l-.8-4.2h0l-.8,4.2h1.7Z"/>
      <path class="cls-2" d="M38.8,52.2h1.9l2.3,6.3h.1v-.6c0,0,0-5.6,0-5.6h1.7v9.3h-2l-2.3-6.3h-.1v.6c0,0,0,5.6,0,5.6h-1.6v-9.3Z"/>
      <path class="cls-2" d="M52.2,55v3.7c0,1.7-1.2,2.8-3,2.8h-2.8v-9.3h2.8c1.8,0,3,1.1,3,2.8ZM50.6,55.1c0-.8-.5-1.3-1.4-1.3h-1.1v6.3h1.1c.9,0,1.4-.5,1.4-1.3v-3.6Z"/>
      <path class="cls-2" d="M59.3,52.2v9.3h-1.6v-4h-2.3v4h-1.6v-9.3h1.6v3.9h2.3v-3.9h1.6Z"/>
      <path class="cls-2" d="M62.6,53.8v2.4h2.7v1.5h-2.7v2.5h3.2v1.5h-4.8v-9.3h4.8v1.5h-3.2Z"/>
      <path class="cls-2" d="M71.9,60.1v1.5h-4.6v-9.3h1.6v7.8h3Z"/>
      <path class="cls-2" d="M79,55v3.7c0,1.7-1.2,2.8-3,2.8h-2.8v-9.3h2.8c1.8,0,3,1.1,3,2.8ZM77.3,55.1c0-.8-.5-1.3-1.4-1.3h-1.1v6.3h1.1c.9,0,1.4-.5,1.4-1.3v-3.6Z"/>
      <path class="cls-2" d="M30.3,67.8v2.6h2.5v1.5h-2.5v3.7h-1.6v-9.3h4.7v1.5h-3.1Z"/>
      <path class="cls-2" d="M37.5,72.2h-1.1v3.4h-1.6v-9.3h2.9c1.9,0,2.9,1.1,2.9,3s-.5,2.3-1.5,2.7l1.7,3.7h-1.9l-1.3-3.4ZM36.4,70.7h1.1c.9,0,1.5-.5,1.5-1.5s-.5-1.5-1.5-1.5h-1.1v3Z"/>
      <path class="cls-2" d="M41.6,72.9v-4c0-1.7,1.2-2.8,3-2.8s3,1.1,3,2.8v4c0,1.7-1.2,2.8-3,2.8s-3-1.1-3-2.8ZM46,72.9v-4c0-.8-.5-1.3-1.4-1.3s-1.4.5-1.4,1.3v4c0,.8.5,1.3,1.4,1.3s1.4-.5,1.4-1.3Z"/>
      <path class="cls-2" d="M54,67.8h-2v7.8h-1.6v-7.8h-2v-1.5h5.6v1.5Z"/>
      <path class="cls-2" d="M60.8,66.2v9.3h-1.6v-4h-2.3v4h-1.6v-9.3h1.6v3.9h2.3v-3.9h1.6Z"/>
      <path class="cls-2" d="M64.2,67.8v2.4h2.7v1.5h-2.7v2.5h3.2v1.5h-4.8v-9.3h4.8v1.5h-3.2Z"/>
      <path class="cls-2" d="M71.6,72.2h-1.1v3.4h-1.6v-9.3h2.9c1.9,0,2.9,1.1,2.9,3s-.5,2.3-1.5,2.7l1.7,3.7h-1.9l-1.3-3.4ZM70.5,70.7h1.1c.9,0,1.5-.5,1.5-1.5s-.5-1.5-1.5-1.5h-1.1v3Z"/>
    </g>
  </g>
</svg>